<svg width="91" height="91" viewBox="0 0 91 91" fill="none" xmlns="http://www.w3.org/2000/svg">
<path d="M27.6561 44.6555H17.3227C16.7903 44.6555 16.3584 45.0875 16.3584 45.6198V56.1328C16.3584 56.6651 16.7903 57.0971 17.3227 57.0971C17.855 57.0971 18.287 56.6651 18.287 56.1328V46.5841H27.6561C28.1885 46.5841 28.6204 46.1522 28.6204 45.6198C28.6204 45.0875 28.1885 44.6555 27.6561 44.6555Z" fill="#EB6753"/>
<path d="M17.3227 59.2178C16.7903 59.2178 16.3584 59.6497 16.3584 60.182V61.4893C16.3584 62.0215 16.7903 62.4535 17.3227 62.4535C17.855 62.4535 18.287 62.0215 18.287 61.4893V60.182C18.287 59.6497 17.855 59.2178 17.3227 59.2178Z" fill="#EB6753"/>
<path d="M61.3862 13.3853C61.0346 13.7858 61.0748 14.396 61.4738 14.7463L75.5954 27.1364C75.995 27.4868 76.604 27.4496 76.9562 27.0485C77.3078 26.648 77.2676 26.0378 76.8686 25.6874L62.747 13.2974C62.3468 12.9458 61.739 12.9835 61.3862 13.3853Z" fill="#EB6753"/>
<path d="M57.7398 10.1884C57.3895 10.5889 57.4297 11.1979 57.8303 11.5495L58.4191 12.0655C58.826 12.4194 59.4318 12.3716 59.7801 11.9751C60.1305 11.5746 60.0903 10.9656 59.6897 10.6141L59.1009 10.098C58.7004 9.749 58.0914 9.78662 57.7398 10.1884Z" fill="#EB6753"/>
<path d="M43.6095 18.3889C39.3666 18.3889 35.9209 21.8475 35.9209 26.0903C35.9209 30.3204 39.3666 33.7661 43.6095 33.7661C47.8394 33.7661 51.2852 30.3204 51.2852 26.0903C51.2852 21.8475 47.8394 18.3889 43.6095 18.3889ZM43.6095 31.8375C40.4338 31.8375 37.8495 29.2532 37.8495 26.0903C37.8495 22.9018 40.4338 20.3175 43.6095 20.3175C46.7723 20.3175 49.3566 22.9018 49.3566 26.0903C49.3566 29.2532 46.7723 31.8375 43.6095 31.8375Z" fill="#181A20"/>
<path d="M32.2438 68.8661C32.2438 69.4061 31.8067 69.8303 31.2795 69.8303H29.9295C29.3895 69.8303 28.9652 69.4061 28.9652 68.8661C28.9652 68.3387 29.3895 67.9019 29.9295 67.9019H31.2795C31.8067 67.9019 32.2438 68.3387 32.2438 68.8661Z" fill="#181A20"/>
<path d="M69.1718 58.5759H59.7952C59.2628 58.5759 58.8309 59.0079 58.8309 59.5402C58.8309 60.0726 59.2628 60.5044 59.7952 60.5044H69.1718C69.704 60.5044 70.136 60.0726 70.136 59.5402C70.136 59.0079 69.704 58.5759 69.1718 58.5759Z" fill="#EB6753"/>
<path d="M56.4741 58.5759H56.282C55.7497 58.5759 55.3177 59.0079 55.3177 59.5402C55.3177 60.0726 55.7497 60.5044 56.282 60.5044H56.4741C57.0065 60.5044 57.4384 60.0726 57.4384 59.5402C57.4384 59.0079 57.0065 58.5759 56.4741 58.5759Z" fill="#EB6753"/>
<path d="M84.5726 63.6972H75.971V41.4546H79.0178C81.821 41.4546 83.1194 37.9832 81.0236 36.1446L45.5894 5.05607C44.4452 4.05325 42.7352 4.05325 41.5909 5.05607L26.6509 18.1833V14.1847H28.0652C28.9267 14.1847 29.6209 13.4904 29.6209 12.6418V7.97468C29.6209 7.12604 28.9267 6.43179 28.0652 6.43179H12.4823C11.6209 6.43179 10.9267 7.12604 10.9267 7.97468V12.6418C10.9267 13.4904 11.6209 14.1847 12.4823 14.1847H13.9095V29.3689L6.18235 36.1446C4.08662 37.996 5.39808 41.4546 8.18808 41.4546H11.2352V84.6678H7.85376C7.32666 84.6678 6.8895 85.092 6.8895 85.632C6.8895 86.1588 7.32666 86.5962 7.85376 86.5962H7.93092H84.5726C85.8068 86.5962 86.8094 85.5804 86.8094 84.3462V65.9346C86.8094 64.7004 85.8068 63.6972 84.5726 63.6972ZM12.8552 12.2561V8.36036H27.6923V12.2561H12.8552ZM24.7223 14.1847V19.8675L15.8381 27.6718V14.1847H24.7223ZM8.18808 39.526C7.17228 39.526 6.6966 38.2661 7.45518 37.5975L42.8638 6.50894C43.2752 6.14896 43.9052 6.14896 44.3166 6.50894L79.751 37.5975C80.5094 38.2661 80.0468 39.526 79.0178 39.526H8.18808ZM23.8094 54.6075V84.6678H13.1638V41.4546H74.0426V63.6972H47.9423V54.6075C47.9423 52.7046 46.3866 51.1489 44.4838 51.1489H27.2809C25.3652 51.1489 23.8094 52.7046 23.8094 54.6075ZM46.0138 63.723C44.9338 63.8772 44.0852 64.842 44.0852 65.9346C44.0981 73.5846 44.0594 84.282 44.1109 84.6678H25.738V54.6075C25.738 53.7718 26.4323 53.0775 27.2809 53.0775H44.4838C45.3195 53.0775 46.0138 53.7718 46.0138 54.6075V63.723ZM84.881 84.3462C84.881 84.5262 84.7394 84.6678 84.5726 84.6678H46.3223C46.2323 84.6678 46.0266 84.5262 46.0266 84.3588V65.9346C46.0266 65.7678 46.1938 65.6262 46.3223 65.6262C47.0681 65.6388 74.2478 65.6262 84.5726 65.6262C84.7394 65.6262 84.881 65.7678 84.881 65.9346V84.3462Z" fill="#181A20"/>
<path d="M44.4838 53.0774H27.2809C26.4324 53.0774 25.738 53.7716 25.738 54.6074V84.6677H44.1109C44.0595 84.2819 44.0981 73.5845 44.0852 65.9345C44.0852 64.8419 44.9338 63.8771 46.0138 63.7229V54.6074C46.0138 53.7716 45.3195 53.0774 44.4838 53.0774ZM31.2795 69.8303H29.9295C29.3895 69.8303 28.9652 69.4061 28.9652 68.8661C28.9652 68.3387 29.3895 67.9019 29.9295 67.9019H31.2795C31.8067 67.9019 32.2438 68.3387 32.2438 68.8661C32.2438 69.4061 31.8067 69.8303 31.2795 69.8303Z" fill="url(#paint0_linear_6108_138)"/>
<path d="M12.8549 8.35962H27.692V12.2553H12.8549V8.35962Z" fill="url(#paint1_linear_6108_138)"/>
<path d="M24.7224 14.1846V19.8674L15.8381 27.6717V14.1846H24.7224Z" fill="url(#paint2_linear_6108_138)"/>
<path d="M49.3566 26.0902C49.3566 29.2531 46.7723 31.8374 43.6094 31.8374C40.4337 31.8374 37.8495 29.2531 37.8495 26.0902C37.8495 22.9017 40.4337 20.3174 43.6094 20.3174C46.7723 20.3174 49.3566 22.9017 49.3566 26.0902Z" fill="#DDDDDD"/>
<path d="M53.9852 71.7329C52.108 71.7329 50.578 73.2629 50.578 75.1403C50.578 77.0303 52.108 78.5603 53.9852 78.5603C55.8752 78.5603 57.3923 77.0303 57.3923 75.1403C57.3923 73.2629 55.8752 71.7329 53.9852 71.7329ZM53.9852 76.6319C53.1752 76.6319 52.5066 75.9629 52.5066 75.1403C52.5066 74.3303 53.1752 73.6619 53.9852 73.6619C54.8081 73.6619 55.4637 74.3303 55.4637 75.1403C55.4637 75.9629 54.8081 76.6319 53.9852 76.6319Z" fill="#181A20"/>
<path d="M55.4637 75.1403C55.4637 75.9629 54.8081 76.6319 53.9852 76.6319C53.1752 76.6319 52.5066 75.9629 52.5066 75.1403C52.5066 74.3303 53.1752 73.6619 53.9852 73.6619C54.8081 73.6619 55.4637 74.3303 55.4637 75.1403Z" fill="#DDDDDD"/>
<path d="M76.9094 71.7329C75.0326 71.7329 73.5026 73.2629 73.5026 75.1403C73.5026 77.0303 75.0326 78.5603 76.9094 78.5603C78.7868 78.5603 80.3168 77.0303 80.3168 75.1403C80.3168 73.2629 78.7868 71.7329 76.9094 71.7329ZM76.9094 76.6319C76.0868 76.6319 75.431 75.9629 75.431 75.1403C75.431 74.3303 76.0868 73.6619 76.9094 73.6619C77.7326 73.6619 78.3878 74.3303 78.3878 75.1403C78.3878 75.9629 77.7326 76.6319 76.9094 76.6319Z" fill="#181A20"/>
<path d="M78.3878 75.1403C78.3878 75.9629 77.7326 76.6319 76.9094 76.6319C76.0868 76.6319 75.431 75.9629 75.431 75.1403C75.431 74.3303 76.0868 73.6619 76.9094 73.6619C77.7326 73.6619 78.3878 74.3303 78.3878 75.1403Z" fill="#DDDDDD"/>
<path d="M65.4488 70.6745C66.416 70.6745 67.2032 71.4605 67.2032 72.4277C67.2032 72.9599 67.6352 73.3919 68.1674 73.3919C68.6996 73.3919 69.1316 72.9599 69.1316 72.4277C69.1316 70.7333 67.9742 69.3173 66.4136 68.8907V68.1749C66.4136 67.6427 65.9816 67.2107 65.4488 67.2107C64.9166 67.2107 64.4846 67.6427 64.4846 68.1749V68.8907C62.924 69.3173 61.7666 70.7333 61.7666 72.4277C61.7666 74.4581 63.419 76.1099 65.4488 76.1099C66.416 76.1099 67.2032 76.8971 67.2032 77.8643C67.2032 78.8309 66.416 79.6169 65.4488 79.6169C64.4822 79.6169 63.695 78.8309 63.695 77.8643C63.695 77.3321 63.263 76.9001 62.7308 76.9001C62.1986 76.9001 61.7666 77.3321 61.7666 77.8643C61.7666 79.5587 62.924 80.9747 64.4846 81.4013V82.1171C64.4846 82.6493 64.9166 83.0813 65.4488 83.0813C65.9816 83.0813 66.4136 82.6493 66.4136 82.1171V81.4013C67.9742 80.9747 69.1316 79.5587 69.1316 77.8643C69.1316 75.8339 67.4792 74.1815 65.4488 74.1815C64.4822 74.1815 63.695 73.3943 63.695 72.4277C63.695 71.4605 64.4822 70.6745 65.4488 70.6745Z" fill="#181A20"/>
<defs>
<linearGradient id="paint0_linear_6108_138" x1="35.8759" y1="53.0774" x2="35.8759" y2="84.6677" gradientUnits="userSpaceOnUse">
<stop stop-color="#DDDDDD" stop-opacity="0"/>
<stop offset="1" stop-color="#DDDDDD"/>
</linearGradient>
<linearGradient id="paint1_linear_6108_138" x1="20.2734" y1="8.35962" x2="20.2734" y2="12.2553" gradientUnits="userSpaceOnUse">
<stop stop-color="#DDDDDD" stop-opacity="0"/>
<stop offset="1" stop-color="#DDDDDD"/>
</linearGradient>
<linearGradient id="paint2_linear_6108_138" x1="20.2802" y1="14.1846" x2="20.2802" y2="27.6717" gradientUnits="userSpaceOnUse">
<stop stop-color="#DDDDDD" stop-opacity="0"/>
<stop offset="1" stop-color="#DDDDDD"/>
</linearGradient>
</defs>
</svg>
