<svg width="91" height="91" viewBox="0 0 91 91" fill="none" xmlns="http://www.w3.org/2000/svg">
<path d="M35.3933 44.5488H21.6711C21.1388 44.5488 20.7068 44.9808 20.7068 45.5131V60.7044C20.7068 61.2366 21.1388 61.6686 21.6711 61.6686C22.2035 61.6686 22.6354 61.2366 22.6354 60.7044V46.4774H35.3933C35.9257 46.4774 36.3576 46.0455 36.3576 45.5131C36.3576 44.9808 35.9257 44.5488 35.3933 44.5488Z" fill="#EB6753"/>
<path d="M21.6711 63.3599C21.1388 63.3599 20.7068 63.7919 20.7068 64.3241V65.8559C20.7068 66.3881 21.1388 66.8201 21.6711 66.8201C22.2035 66.8201 22.6354 66.3881 22.6354 65.8559V64.3241C22.6354 63.7919 22.2035 63.3599 21.6711 63.3599Z" fill="#EB6753"/>
<path d="M75.9949 25.2429C76.2631 25.2429 76.5301 25.1323 76.7203 24.9151C77.0719 24.5146 77.0323 23.9056 76.6315 23.5541L65.6959 13.9577C65.2963 13.6061 64.6861 13.6463 64.3357 14.0456C63.9841 14.4461 64.0237 15.0551 64.4239 15.4066L75.3595 25.003C75.5425 25.1637 75.7699 25.2429 75.9949 25.2429Z" fill="#EB6753"/>
<path d="M62.4098 13.3225C62.678 13.3225 62.9438 13.212 63.1346 12.9948C63.4862 12.5943 63.4466 11.9853 63.047 11.6337L62.5664 11.2119C62.1662 10.8603 61.5578 10.9005 61.2056 11.2997C60.854 11.7003 60.8936 12.3092 61.2932 12.6607L61.7738 13.0827C61.9568 13.2433 62.1836 13.3225 62.4098 13.3225Z" fill="#EB6753"/>
<path d="M76.2314 51.6696V41.4482H81.374C84.1639 41.4482 85.463 37.9896 83.3672 36.151L47.9328 5.06247C46.8014 4.05958 45.0785 4.05958 43.947 5.06247L28.9942 18.1767V14.1782H30.4214C31.2699 14.1782 31.9642 13.4967 31.9642 12.6353V7.96811C31.9642 7.11959 31.2699 6.42533 30.4214 6.42533H14.8257C13.9771 6.42533 13.2828 7.11959 13.2828 7.96811V12.6353C13.2828 13.4967 13.9771 14.1782 14.8257 14.1782H16.2528V29.3624L8.53851 36.151C6.42994 37.9896 7.74135 41.4482 10.5314 41.4482H15.6871V84.6611H12.9614C12.4342 84.6611 11.9971 85.0979 11.9971 85.6253C11.9971 86.1521 12.4342 86.5895 12.9614 86.5895H78.9446C79.484 86.5895 79.9088 86.1521 79.9088 85.6253C79.9088 85.0979 79.484 84.6611 78.9446 84.6611H76.2314V74.3111C80.9372 72.7037 84.344 68.2421 84.344 62.9837C84.344 57.7382 80.9372 53.2767 76.2314 51.6696ZM15.2114 12.2496V8.35391H30.0356V12.2496H15.2114ZM27.0656 14.191V19.8738L18.1814 27.6653V14.191H27.0656ZM10.5314 39.5196C9.51567 39.5196 9.03999 38.2595 9.79851 37.591L45.2199 6.50249C45.4257 6.32246 45.6828 6.23245 45.9399 6.23245C46.197 6.23245 46.4542 6.32246 46.6599 6.50249L82.094 37.591C82.853 38.2595 82.3898 39.5196 81.374 39.5196H10.5314ZM74.303 84.6611C50.9799 84.6611 52.3685 84.6611 17.6157 84.6611V41.4482H74.303V51.1811C69.1856 50.3453 63.8756 52.9681 61.5488 57.9053H46.917V53.6496C46.917 51.3996 45.1043 49.5867 42.8543 49.5867C40.6299 49.5867 38.8042 51.4125 38.8042 53.6496V72.3437C38.8042 74.5553 40.5914 76.4069 42.8543 76.4069C45.1043 76.4069 46.917 74.5811 46.917 72.3437V68.0753H61.5488C63.5798 72.3827 67.874 74.9669 72.374 74.9669C72.9914 74.9669 73.7888 74.8895 74.303 74.7995V84.6611ZM60.8156 66.1469H40.7328V59.8338C40.7328 59.8338 43.1242 59.8467 60.8156 59.8338C60.3143 61.6979 60.237 63.9995 60.8156 66.1469ZM44.9885 68.0753V72.3437C44.9885 73.5137 44.037 74.4779 42.8543 74.4779C41.697 74.4779 40.7328 73.5269 40.7328 72.3437V68.0753H44.9885ZM40.7328 57.9053V53.6496C40.7328 52.4667 41.6842 51.5153 42.8543 51.5153C44.037 51.5153 44.9885 52.4795 44.9885 53.6496V57.9053H40.7328ZM72.374 73.0379C69.764 73.0379 67.3988 72.0221 65.5988 70.3895C63.8114 68.7569 62.6156 66.4937 62.3714 63.9995C61.7798 58.0596 66.4988 52.9553 72.374 52.9553C77.8772 52.9553 82.4156 57.4424 82.4156 62.9837C82.4156 68.5895 77.8256 73.0379 72.374 73.0379Z" fill="#181A20"/>
<path d="M72.3739 52.9553C66.4987 52.9553 61.7797 58.0596 62.3713 63.9995C62.6155 66.4937 63.8113 68.7569 65.5987 70.3895C67.3981 72.0227 69.7639 73.0379 72.3739 73.0379C77.8255 73.0379 82.4155 68.5895 82.4155 62.9837C82.4155 57.4425 77.8771 52.9553 72.3739 52.9553ZM74.9587 67.2779C72.5929 67.2779 70.6771 65.3495 70.6771 62.9969C70.6771 60.6311 72.5929 58.7024 74.9587 58.7024C77.3239 58.7024 79.2529 60.6311 79.2529 62.9969C79.2529 65.3495 77.3239 67.2779 74.9587 67.2779Z" fill="url(#paint0_linear_6108_203)"/>
<path d="M44.9885 53.6497V57.9054H40.7328V53.6497C40.7328 52.4669 41.6842 51.5154 42.8542 51.5154C44.037 51.5154 44.9885 52.4796 44.9885 53.6497Z" fill="#DDDDDD"/>
<path d="M44.9885 68.0754V72.3438C44.9885 73.5138 44.037 74.478 42.8542 74.478C41.697 74.478 40.7328 73.527 40.7328 72.3438V68.0754H44.9885Z" fill="#DDDDDD"/>
<path d="M15.2111 8.35449H30.0354V12.2502H15.2111V8.35449Z" fill="url(#paint1_linear_6108_203)"/>
<path d="M27.0656 14.1912V19.8739L18.1813 27.6654V14.1912H27.0656Z" fill="url(#paint2_linear_6108_203)"/>
<path d="M45.9528 18.4724C41.7613 18.4724 38.3413 21.8924 38.3413 26.0838C38.3413 30.2753 41.7613 33.6824 45.9528 33.6824C50.1442 33.6824 53.5513 30.2753 53.5513 26.0838C53.5513 21.8924 50.1442 18.4724 45.9528 18.4724ZM45.9528 31.7538C42.8284 31.7538 40.2699 29.2081 40.2699 26.0838C40.2699 22.9467 42.8284 20.401 45.9528 20.401C49.077 20.401 51.6228 22.9467 51.6228 26.0838C51.6228 29.2081 49.077 31.7538 45.9528 31.7538Z" fill="#181A20"/>
<path d="M51.6228 26.084C51.6228 29.2082 49.077 31.754 45.9528 31.754C42.8285 31.754 40.2699 29.2082 40.2699 26.084C40.2699 22.9468 42.8285 20.4011 45.9528 20.4011C49.077 20.4011 51.6228 22.9468 51.6228 26.084Z" fill="#DDDDDD"/>
<path d="M52.188 73.0978H52.7737C53.3061 73.0978 53.738 72.6664 53.738 72.1336C53.738 71.6014 53.3061 71.1694 52.7737 71.1694H52.188C51.6556 71.1694 51.2237 71.6014 51.2237 72.1336C51.2237 72.6664 51.6556 73.0978 52.188 73.0978Z" fill="#EB6753"/>
<path d="M56.0546 73.0978H61.361C61.8938 73.0978 62.3258 72.6664 62.3258 72.1336C62.3258 71.6014 61.8938 71.1694 61.361 71.1694H56.0546C55.5222 71.1694 55.0902 71.6014 55.0902 72.1336C55.0902 72.6664 55.5222 73.0978 56.0546 73.0978Z" fill="#EB6753"/>
<path d="M74.9588 58.7024C72.593 58.7024 70.6772 60.6311 70.6772 62.9969C70.6772 65.3495 72.593 67.2779 74.9588 67.2779C77.324 67.2779 79.253 65.3495 79.253 62.9969C79.253 60.6311 77.324 58.7024 74.9588 58.7024ZM74.9588 65.3495C73.6598 65.3495 72.6056 64.2953 72.6056 62.9969C72.6056 61.6979 73.6598 60.6311 74.9588 60.6311C76.2572 60.6311 77.324 61.6979 77.324 62.9969C77.324 64.2953 76.2572 65.3495 74.9588 65.3495Z" fill="#181A20"/>
<defs>
<linearGradient id="paint0_linear_6108_203" x1="72.3685" y1="52.9553" x2="72.3685" y2="73.0379" gradientUnits="userSpaceOnUse">
<stop stop-color="#DDDDDD" stop-opacity="0"/>
<stop offset="1" stop-color="#DDDDDD"/>
</linearGradient>
<linearGradient id="paint1_linear_6108_203" x1="22.6232" y1="8.35449" x2="22.6232" y2="12.2502" gradientUnits="userSpaceOnUse">
<stop stop-color="#DDDDDD" stop-opacity="0"/>
<stop offset="1" stop-color="#DDDDDD"/>
</linearGradient>
<linearGradient id="paint2_linear_6108_203" x1="22.6235" y1="14.1912" x2="22.6235" y2="27.6654" gradientUnits="userSpaceOnUse">
<stop stop-color="#DDDDDD" stop-opacity="0"/>
<stop offset="1" stop-color="#DDDDDD"/>
</linearGradient>
</defs>
</svg>
